<svg width="36" height="36" viewBox="0 0 36 36" fill="none" xmlns="http://www.w3.org/2000/svg">
<mask id="mask0_14_565" style="mask-type:luminance" maskUnits="userSpaceOnUse" x="1" y="3" width="34" height="30">
<path fill-rule="evenodd" clip-rule="evenodd" d="M32.25 3.75H3.75C2.50667 3.75 1.5 4.75667 1.5 6V30C1.5 31.243 2.50667 32.25 3.75 32.25H32.25C33.493 32.25 34.5 31.243 34.5 30V6C34.5 4.75667 33.493 3.75 32.25 3.75Z" fill="white"/>
</mask>
<g mask="url(#mask0_14_565)">
<path fill-rule="evenodd" clip-rule="evenodd" d="M4.5 6.75H31.5V29.25H4.5V6.75Z" fill="#0F9D58"/>
<path fill-rule="evenodd" clip-rule="evenodd" d="M12 18.75C12.2216 18.75 12.4411 18.7063 12.6458 18.6215C12.8506 18.5367 13.0366 18.4124 13.1934 18.2557C13.3501 18.0989 13.4744 17.9129 13.5592 17.7081C13.644 17.5034 13.6877 17.2839 13.6877 17.0623C13.6877 16.8407 13.644 16.6212 13.5592 16.4165C13.4744 16.2117 13.3501 16.0257 13.1934 15.8689C13.0366 15.7122 12.8506 15.5879 12.6458 15.5031C12.4411 15.4183 12.2216 15.3746 12 15.3746C11.5524 15.3746 11.1231 15.5524 10.8066 15.8689C10.4901 16.1854 10.3123 16.6147 10.3123 17.0623C10.3123 17.5099 10.4901 17.9392 10.8066 18.2557C11.1231 18.5722 11.5524 18.75 12 18.75ZM25.6877 17.0623C25.6877 17.5099 25.5099 17.9392 25.1934 18.2557C24.8769 18.5722 24.4476 18.75 24 18.75C23.5524 18.75 23.1231 18.5722 22.8066 18.2557C22.4901 17.9392 22.3123 17.5099 22.3123 17.0623C22.3123 16.6147 22.4901 16.1854 22.8066 15.8689C23.1231 15.5524 23.5524 15.3746 24 15.3746C24.4476 15.3746 24.8769 15.5524 25.1934 15.8689C25.5099 16.1854 25.6877 16.6147 25.6877 17.0623ZM20.25 22.0183C20.25 20.8333 22.1927 19.8753 24 19.8753C25.8073 19.8753 27.75 20.8333 27.75 22.0186V23.2503H20.25V22.0183ZM8.25 22.0183C8.25 20.8333 10.1927 19.8753 12 19.8753C13.8077 19.8753 15.75 20.8333 15.75 22.0186V23.2503H8.25V22.0183Z" fill="#57BB8A"/>
<path fill-rule="evenodd" clip-rule="evenodd" d="M20.25 15.0004C20.25 16.2437 19.2433 17.2504 18.002 17.2504C17.7064 17.2505 17.4137 17.1924 17.1405 17.0794C16.8673 16.9664 16.6191 16.8007 16.41 16.5918C16.2009 16.3828 16.035 16.1348 15.9217 15.8617C15.8085 15.5887 15.7501 15.296 15.75 15.0004C15.7505 14.4034 15.988 13.8312 16.4103 13.4093C16.8326 12.9874 17.4051 12.7504 18.002 12.7504C19.243 12.7504 20.25 13.759 20.25 15.0004ZM12.75 21.7504C12.75 20.0927 15.4687 18.7504 18 18.7504C20.5313 18.7504 23.25 20.0927 23.25 21.7504V23.2504H12.75V21.7504Z" fill="#F7F7F7"/>
<path fill-rule="evenodd" clip-rule="evenodd" d="M21 27.7504H27.75V29.2504H21V27.7504Z" fill="#F1F1F1"/>
<path fill-rule="evenodd" clip-rule="evenodd" d="M3.75 3.75H32.25C33.493 3.75 34.5 4.75667 34.5 6V30C34.5 31.243 33.493 32.25 32.25 32.25H3.75C2.50667 32.25 1.5 31.243 1.5 30V6C1.5 4.75667 2.50667 3.75 3.75 3.75ZM4.5 29.25H31.5V6.75H4.5V29.25Z" fill="#F4B400"/>
<path opacity="0.2" fill-rule="evenodd" clip-rule="evenodd" d="M32.25 3.74997H3.75C2.50667 3.74997 1.5 4.75663 1.5 5.99997V6.1873C1.5 4.94397 2.50667 3.9373 3.75 3.9373H32.25C33.493 3.9373 34.5 4.94397 34.5 6.1873V5.99963C34.5 4.75663 33.493 3.74963 32.25 3.74963V3.74997Z" fill="white"/>
<path opacity="0.2" fill-rule="evenodd" clip-rule="evenodd" d="M32.25 32.0627H3.75C2.50667 32.0627 1.5 31.0557 1.5 29.8127V30C1.5 31.2434 2.50667 32.25 3.75 32.25H32.25C33.493 32.25 34.5 31.2434 34.5 30V29.8124C34.5 31.0557 33.493 32.0624 32.25 32.0624V32.0627Z" fill="#BF360C"/>
<path fill-rule="evenodd" clip-rule="evenodd" d="M27.7387 29.25H20.9887L23.987 32.25H30.733L27.7387 29.25Z" fill="url(#paint0_linear_14_565)"/>
<path opacity="0.2" fill-rule="evenodd" clip-rule="evenodd" d="M4.5 6.56238H31.5V6.75004H4.5V6.56238Z" fill="#263238"/>
</g>
<mask id="mask1_14_565" style="mask-type:luminance" maskUnits="userSpaceOnUse" x="1" y="3" width="34" height="30">
<path fill-rule="evenodd" clip-rule="evenodd" d="M32.25 3.75H3.75C2.50667 3.75 1.5 4.75667 1.5 6V30C1.5 31.243 2.50667 32.25 3.75 32.25H32.25C33.493 32.25 34.5 31.243 34.5 30V6C34.5 4.75667 33.493 3.75 32.25 3.75Z" fill="white"/>
</mask>
<g mask="url(#mask1_14_565)">
<path opacity="0.2" fill-rule="evenodd" clip-rule="evenodd" d="M4.5 29.25H31.5V29.4377H4.5V29.25Z" fill="white"/>
</g>
<path fill-rule="evenodd" clip-rule="evenodd" d="M32.25 3.75H3.75C2.50667 3.75 1.5 4.75667 1.5 6V30C1.5 31.243 2.50667 32.25 3.75 32.25H32.25C33.493 32.25 34.5 31.243 34.5 30V6C34.5 4.75667 33.493 3.75 32.25 3.75Z" fill="url(#paint1_radial_14_565)"/>
<defs>
<linearGradient id="paint0_linear_14_565" x1="21.005" y1="29.2917" x2="21.005" y2="32.2813" gradientUnits="userSpaceOnUse">
<stop stop-color="#BF360C" stop-opacity="0.2"/>
<stop offset="1" stop-color="#BF360C" stop-opacity="0.02"/>
</linearGradient>
<radialGradient id="paint1_radial_14_565" cx="0" cy="0" r="1" gradientUnits="userSpaceOnUse" gradientTransform="translate(2.625 4.418) scale(39.4137 34.0393)">
<stop stop-color="white" stop-opacity="0.1"/>
<stop offset="1" stop-color="white" stop-opacity="0.01"/>
</radialGradient>
</defs>
</svg>
